{
  "accessors": [
    {
      "bufferView": 2,
      "componentType": 5126,
      "count": 65532,
      "max": [
        0.15155711770057678,
        0.09032252430915833,
        0.08654604852199554
      ],
      "min": [
        -0.15039058029651642,
        -0.08981186896562576,
        1.0817622353442857e-07
      ],
      "type": "VEC3"
    },
    {
      "bufferView": 2,
      "byteOffset": 786384,
      "componentType": 5126,
      "count": 65532,
      "max": [
        0.9999954104423523,
        0.9999987483024597,
        0.9999997615814209
      ],
      "min": [
        -0.992516040802002,
        -0.970855712890625,
        -1.0
      ],
      "type": "VEC3"
    },
    {
      "bufferView": 1,
      "componentType": 5126,
      "count": 65532,
      "max": [
        0.999702513217926,
        0.9128416776657104
      ],
      "min": [
        0.014571359381079674,
        0.00026835931930691004
      ],
      "type": "VEC2"
    },
    {
      "bufferView": 1,
      "byteOffset": 524256,
      "componentType": 5126,
      "count": 65532,
      "max": [
        0.999702513217926,
        0.9128416776657104
      ],
      "min": [
        0.014571359381079674,
        0.00026835931930691004
      ],
      "type": "VEC2"
    },
    {
      "bufferView": 0,
      "componentType": 5125,
      "count": 347838,
      "type": "SCALAR"
    },
    {
      "bufferView": 2,
      "byteOffset": 1572768,
      "componentType": 5126,
      "count": 65532,
      "max": [
        0.056893493980169296,
        0.09015650302171707,
        0.08534613251686096
      ],
      "min": [
        -0.15155310928821564,
        -0.08981186896562576,
        3.264868198016302e-08
      ],
      "type": "VEC3"
    },
    {
      "bufferView": 2,
      "byteOffset": 2359152,
      "componentType": 5126,
      "count": 65532,
      "max": [
        0.9995664358139038,
        0.9999954700469971,
        0.9999997615814209
      ],
      "min": [
        -0.9979130625724792,
        -0.9994544982910156,
        -1.0
      ],
      "type": "VEC3"
    },
    {
      "bufferView": 1,
      "byteOffset": 1048512,
      "componentType": 5126,
      "count": 65532,
      "max": [
        0.9996635913848877,
        0.9179990887641907
      ],
      "min": [
        0.048925239592790604,
        0.00025298132095485926
      ],
      "type": "VEC2"
    },
    {
      "bufferView": 1,
      "byteOffset": 1572768,
      "componentType": 5126,
      "count": 65532,
      "max": [
        0.9996635913848877,
        0.9179990887641907
      ],
      "min": [
        0.048925239592790604,
        0.00025298132095485926
      ],
      "type": "VEC2"
    },
    {
      "bufferView": 0,
      "byteOffset": 1391352,
      "componentType": 5125,
      "count": 313227,
      "type": "SCALAR"
    },
    {
      "bufferView": 2,
      "byteOffset": 3145536,
      "componentType": 5126,
      "count": 65532,
      "max": [
        0.05686837434768677,
        0.09023712575435638,
        0.08534613251686096
      ],
      "min": [
        -0.15039058029651642,
        -0.05241059884428978,
        0.007299403194338083
      ],
      "type": "VEC3"
    },
    {
      "bufferView": 2,
      "byteOffset": 3931920,
      "componentType": 5126,
      "count": 65532,
      "max": [
        0.9929196238517761,
        0.9999990463256836,
        0.999998152256012
      ],
      "min": [
        -0.9640533924102783,
        -0.9999983906745911,
        -0.7650077939033508
      ],
      "type": "VEC3"
    },
    {
      "bufferView": 1,
      "byteOffset": 2097024,
      "componentType": 5126,
      "count": 65532,
      "max": [
        0.9997313022613525,
        0.9187010526657104
      ],
      "min": [
        0.000244140625,
        0.0002502991119399667
      ],
      "type": "VEC2"
    },
    {
      "bufferView": 1,
      "byteOffset": 2621280,
      "componentType": 5126,
      "count": 65532,
      "max": [
        0.9997313022613525,
        0.9187010526657104
      ],
      "min": [
        0.000244140625,
        0.0002502991119399667
      ],
      "type": "VEC2"
    },
    {
      "bufferView": 0,
      "byteOffset": 2644260,
      "componentType": 5125,
      "count": 287061,
      "type": "SCALAR"
    },
    {
      "bufferView": 2,
      "byteOffset": 4718304,
      "componentType": 5126,
      "count": 65532,
      "max": [
        0.15155304968357086,
        0.03512394800782204,
        0.08444126695394516
      ],
      "min": [
        -0.15155310928821564,
        -0.09055575728416443,
        3.264868198016302e-08
      ],
      "type": "VEC3"
    },
    {
      "bufferView": 2,
      "byteOffset": 5504688,
      "componentType": 5126,
      "count": 65532,
      "max": [
        0.9905101656913757,
        0.9999602437019348,
        0.9999997019767761
      ],
      "min": [
        -0.9949731826782227,
        -0.9999999403953552,
        -0.7939448952674866
      ],
      "type": "VEC3"
    },
    {
      "bufferView": 1,
      "byteOffset": 3145536,
      "componentType": 5126,
      "count": 65532,
      "max": [
        0.9997355937957764,
        0.9477586150169373
      ],
      "min": [
        0.000244140625,
        0.00025107397232204676
      ],
      "type": "VEC2"
    },
    {
      "bufferView": 1,
      "byteOffset": 3669792,
      "componentType": 5126,
      "count": 65532,
      "max": [
        0.9997355937957764,
        0.9477586150169373
      ],
      "min": [
        0.000244140625,
        0.00025107397232204676
      ],
      "type": "VEC2"
    },
    {
      "bufferView": 0,
      "byteOffset": 3792504,
      "componentType": 5125,
      "count": 286593,
      "type": "SCALAR"
    },
    {
      "bufferView": 2,
      "byteOffset": 6291072,
      "componentType": 5126,
      "count": 65532,
      "max": [
        0.15155303478240967,
        0.040041930973529816,
        0.08925381302833557
      ],
      "min": [
        -0.090049609541893,
        -0.08981186896562576,
        1.4778082402244763e-07
      ],
      "type": "VEC3"
    },
    {
      "bufferView": 2,
      "byteOffset": 7077456,
      "componentType": 5126,
      "count": 65532,
      "max": [
        0.9996262192726135,
        0.9996516704559326,
        0.9999998807907104
      ],
      "min": [
        -0.9953611493110657,
        -0.9999977350234985,
        -1.0
      ],
      "type": "VEC3"
    },
    {
      "bufferView": 1,
      "byteOffset": 4194048,
      "componentType": 5126,
      "count": 65532,
      "max": [
        0.9993335604667664,
        0.9514145851135254
      ],
      "min": [
        0.000244140625,
        0.0002775980392470956
      ],
      "type": "VEC2"
    },
    {
      "bufferView": 1,
      "byteOffset": 4718304,
      "componentType": 5126,
      "count": 65532,
      "max": [
        0.9993335604667664,
        0.9514145851135254
      ],
      "min": [
        0.000244140625,
        0.0002775980392470956
      ],
      "type": "VEC2"
    },
    {
      "bufferView": 0,
      "byteOffset": 4938876,
      "componentType": 5125,
      "count": 312081,
      "type": "SCALAR"
    },
    {
      "bufferView": 2,
      "byteOffset": 7863840,
      "componentType": 5126,
      "count": 65532,
      "max": [
        0.10848048329353333,
        0.03587386757135391,
        0.08923117071390152
      ],
      "min": [
        -0.1199934184551239,
        -0.06538988649845123,
        0.011712183244526386
      ],
      "type": "VEC3"
    },
    {
      "bufferView": 2,
      "byteOffset": 8650224,
      "componentType": 5126,
      "count": 65532,
      "max": [
        0.9999979734420776,
        0.9998252391815186,
        0.9999977946281433
      ],
      "min": [
        -0.9998411536216736,
        -0.9999966621398926,
        -0.935479998588562
      ],
      "type": "VEC3"
    },
    {
      "bufferView": 1,
      "byteOffset": 5242560,
      "componentType": 5126,
      "count": 65532,
      "max": [
        0.9995445013046265,
        0.9503967761993408
      ],
      "min": [
        0.000244140625,
        0.0002666903892531991
      ],
      "type": "VEC2"
    },
    {
      "bufferView": 1,
      "byteOffset": 5766816,
      "componentType": 5126,
      "count": 65532,
      "max": [
        0.9995445013046265,
        0.9503967761993408
      ],
      "min": [
        0.000244140625,
        0.0002666903892531991
      ],
      "type": "VEC2"
    },
    {
      "bufferView": 0,
      "byteOffset": 6187200,
      "componentType": 5125,
      "count": 266484,
      "type": "SCALAR"
    },
    {
      "bufferView": 2,
      "byteOffset": 9436608,
      "componentType": 5126,
      "count": 65532,
      "max": [
        -0.06010008603334427,
        0.07400722801685333,
        0.08479377627372742
      ],
      "min": [
        -0.15149767696857452,
        -0.08976107090711594,
        0.011216459795832634
      ],
      "type": "VEC3"
    },
    {
      "bufferView": 2,
      "byteOffset": 10222992,
      "componentType": 5126,
      "count": 65532,
      "max": [
        0.9973952770233154,
        0.9992498159408569,
        0.9999995231628418
      ],
      "min": [
        -0.9999953508377075,
        -0.999997079372406,
        -0.8601545691490173
      ],
      "type": "VEC3"
    },
    {
      "bufferView": 1,
      "byteOffset": 6291072,
      "componentType": 5126,
      "count": 65532,
      "max": [
        0.9997498989105225,
        0.85646653175354
      ],
      "min": [
        0.000244140625,
        0.00025035871658474207
      ],
      "type": "VEC2"
    },
    {
      "bufferView": 1,
      "byteOffset": 6815328,
      "componentType": 5126,
      "count": 65532,
      "max": [
        0.9997498989105225,
        0.85646653175354
      ],
      "min": [
        0.000244140625,
        0.00025035871658474207
      ],
      "type": "VEC2"
    },
    {
      "bufferView": 0,
      "byteOffset": 7253136,
      "componentType": 5125,
      "count": 304287,
      "type": "SCALAR"
    },
    {
      "bufferView": 2,
      "byteOffset": 11009376,
      "componentType": 5126,
      "count": 65533,
      "max": [
        -0.059457216411828995,
        0.08992251753807068,
        0.08342718333005905
      ],
      "min": [
        -0.15155310928821564,
        -0.09055575728416443,
        7.121801814946593e-08
      ],
      "type": "VEC3"
    },
    {
      "bufferView": 2,
      "byteOffset": 11795772,
      "componentType": 5126,
      "count": 65533,
      "max": [
        0.9864934086799622,
        0.9999813437461853,
        0.9999999403953552
      ],
      "min": [
        -0.9999925494194031,
        -0.9999881982803345,
        -1.0
      ],
      "type": "VEC3"
    },
    {
      "bufferView": 1,
      "byteOffset": 7339584,
      "componentType": 5126,
      "count": 65533,
      "max": [
        0.9995741248130798,
        0.9353026151657104
      ],
      "min": [
        0.000244140625,
        0.00024988187942653894
      ],
      "type": "VEC2"
    },
    {
      "bufferView": 1,
      "byteOffset": 7863848,
      "componentType": 5126,
      "count": 65533,
      "max": [
        0.9995741248130798,
        0.9353026151657104
      ],
      "min": [
        0.000244140625,
        0.00024988187942653894
      ],
      "type": "VEC2"
    },
    {
      "bufferView": 0,
      "byteOffset": 8470284,
      "componentType": 5125,
      "count": 322329,
      "type": "SCALAR"
    },
    {
      "bufferView": 2,
      "byteOffset": 12582168,
      "componentType": 5126,
      "count": 65532,
      "max": [
        0.1515551209449768,
        0.09048646688461304,
        0.08479377627372742
      ],
      "min": [
        -0.15155307948589325,
        -0.08982331305742264,
        1.3771533247108891e-07
      ],
      "type": "VEC3"
    },
    {
      "bufferView": 2,
      "byteOffset": 13368552,
      "componentType": 5126,
      "count": 65532,
      "max": [
        0.9999517798423767,
        0.999969482421875,
        1.0
      ],
      "min": [
        -0.9999836087226868,
        -0.9999999403953552,
        -0.9154807925224304
      ],
      "type": "VEC3"
    },
    {
      "bufferView": 1,
      "byteOffset": 8388112,
      "componentType": 5126,
      "count": 65532,
      "max": [
        0.9997512102127075,
        0.9272820949554443
      ],
      "min": [
        0.000244140625,
        0.0002547098556533456
      ],
      "type": "VEC2"
    },
    {
      "bufferView": 1,
      "byteOffset": 8912368,
      "componentType": 5126,
      "count": 65532,
      "max": [
        0.9997512102127075,
        0.9272820949554443
      ],
      "min": [
        0.000244140625,
        0.0002547098556533456
      ],
      "type": "VEC2"
    },
    {
      "bufferView": 0,
      "byteOffset": 9759600,
      "componentType": 5125,
      "count": 272613,
      "type": "SCALAR"
    },
    {
      "bufferView": 2,
      "byteOffset": 14154936,
      "componentType": 5126,
      "count": 65532,
      "max": [
        0.15155306458473206,
        0.03767104819417,
        0.08906444162130356
      ],
      "min": [
        0.038767069578170776,
        -0.08981186151504517,
        0.0029425155371427536
      ],
      "type": "VEC3"
    },
    {
      "bufferView": 2,
      "byteOffset": 14941320,
      "componentType": 5126,
      "count": 65532,
      "max": [
        0.9999979734420776,
        0.998113214969635,
        0.9999999403953552
      ],
      "min": [
        -0.9999836087226868,
        -0.9999986886978149,
        -0.9976403713226318
      ],
      "type": "VEC3"
    },
    {
      "bufferView": 1,
      "byteOffset": 9436624,
      "componentType": 5126,
      "count": 65532,
      "max": [
        0.9997408986091614,
        0.9528807401657104
      ],
      "min": [
        0.000244140625,
        0.00024404062423855066
      ],
      "type": "VEC2"
    },
    {
      "bufferView": 1,
      "byteOffset": 9960880,
      "componentType": 5126,
      "count": 65532,
      "max": [
        0.9997408986091614,
        0.9528807401657104
      ],
      "min": [
        0.000244140625,
        0.00024404062423855066
      ],
      "type": "VEC2"
    },
    {
      "bufferView": 0,
      "byteOffset": 10850052,
      "componentType": 5125,
      "count": 273363,
      "type": "SCALAR"
    },
    {
      "bufferView": 2,
      "byteOffset": 15727704,
      "componentType": 5126,
      "count": 5323,
      "max": [
        0.10970213264226913,
        0.035123731940984726,
        0.08580449223518372
      ],
      "min": [
        0.04627795144915581,
        -0.0685184895992279,
        0.01830085925757885
      ],
      "type": "VEC3"
    },
    {
      "bufferView": 2,
      "byteOffset": 15791580,
      "componentType": 5126,
      "count": 5323,
      "max": [
        0.9999648928642273,
        0.9752359986305237,
        0.999954104423523
      ],
      "min": [
        -0.9907627701759338,
        -0.9999095797538757,
        -0.956559956073761
      ],
      "type": "VEC3"
    },
    {
      "bufferView": 1,
      "byteOffset": 10485136,
      "componentType": 5126,
      "count": 5323,
      "max": [
        0.999755322933197,
        0.9483533501625061
      ],
      "min": [
        0.02231161668896675,
        0.0003825618186965585
      ],
      "type": "VEC2"
    },
    {
      "bufferView": 1,
      "byteOffset": 10527720,
      "componentType": 5126,
      "count": 5323,
      "max": [
        0.999755322933197,
        0.9483533501625061
      ],
      "min": [
        0.02231161668896675,
        0.0003825618186965585
      ],
      "type": "VEC2"
    },
    {
      "bufferView": 0,
      "byteOffset": 11943504,
      "componentType": 5125,
      "count": 13956,
      "type": "SCALAR"
    }
  ],
  "asset": {
    "extras": {
      "author": "Amit Bhandari (https://sketchfab.com/amitbhandari101)",
      "license": "CC-BY-4.0 (http://creativecommons.org/licenses/by/4.0/)",
      "source": "https://sketchfab.com/3d-models/scan-2023-04-06t085333462z-1a58473f58dc45f398637c1d584e0fe9",
      "title": "Scan 2023-04-06T08:53:33.462Z"
    },
    "generator": "Sketchfab-15.16.0",
    "version": "2.0"
  },
  "bufferViews": [
    {
      "buffer": 0,
      "byteLength": 11999328,
      "name": "floatBufferViews",
      "target": 34963
    },
    {
      "buffer": 0,
      "byteLength": 10570304,
      "byteOffset": 11999328,
      "byteStride": 8,
      "name": "floatBufferViews",
      "target": 34962
    },
    {
      "buffer": 0,
      "byteLength": 15855456,
      "byteOffset": 22569632,
      "byteStride": 12,
      "name": "floatBufferViews",
      "target": 34962
    }
  ],
  "buffers": [
    {
      "byteLength": 38425088,
      "uri": "scene.bin"
    }
  ],
  "extensionsUsed": [
    "KHR_materials_unlit"
  ],
  "images": [
    {
      "uri": "textures/tex_u1_v1_baseColor.jpeg"
    }
  ],
  "materials": [
    {
      "doubleSided": true,
      "extensions": {
        "KHR_materials_unlit": {}
      },
      "name": "tex_u1_v1",
      "pbrMetallicRoughness": {
        "baseColorTexture": {
          "index": 0
        },
        "metallicFactor": 0.0
      }
    }
  ],
  "meshes": [
    {
      "name": "model_tex_u1_v1_0",
      "primitives": [
        {
          "attributes": {
            "NORMAL": 1,
            "POSITION": 0,
            "TEXCOORD_0": 2,
            "TEXCOORD_1": 3
          },
          "indices": 4,
          "material": 0,
          "mode": 4
        }
      ]
    },
    {
      "name": "model_tex_u1_v1_0",
      "primitives": [
        {
          "attributes": {
            "NORMAL": 6,
            "POSITION": 5,
            "TEXCOORD_0": 7,
            "TEXCOORD_1": 8
          },
          "indices": 9,
          "material": 0,
          "mode": 4
        }
      ]
    },
    {
      "name": "model_tex_u1_v1_0",
      "primitives": [
        {
          "attributes": {
            "NORMAL": 11,
            "POSITION": 10,
            "TEXCOORD_0": 12,
            "TEXCOORD_1": 13
          },
          "indices": 14,
          "material": 0,
          "mode": 4
        }
      ]
    },
    {
      "name": "model_tex_u1_v1_0",
      "primitives": [
        {
          "attributes": {
            "NORMAL": 16,
            "POSITION": 15,
            "TEXCOORD_0": 17,
            "TEXCOORD_1": 18
          },
          "indices": 19,
          "material": 0,
          "mode": 4
        }
      ]
    },
    {
      "name": "model_tex_u1_v1_0",
      "primitives": [
        {
          "attributes": {
            "NORMAL": 21,
            "POSITION": 20,
            "TEXCOORD_0": 22,
            "TEXCOORD_1": 23
          },
          "indices": 24,
          "material": 0,
          "mode": 4
        }
      ]
    },
    {
      "name": "model_tex_u1_v1_0",
      "primitives": [
        {
          "attributes": {
            "NORMAL": 26,
            "POSITION": 25,
            "TEXCOORD_0": 27,
            "TEXCOORD_1": 28
          },
          "indices": 29,
          "material": 0,
          "mode": 4
        }
      ]
    },
    {
      "name": "model_tex_u1_v1_0",
      "primitives": [
        {
          "attributes": {
            "NORMAL": 31,
            "POSITION": 30,
            "TEXCOORD_0": 32,
            "TEXCOORD_1": 33
          },
          "indices": 34,
          "material": 0,
          "mode": 4
        }
      ]
    },
    {
      "name": "model_tex_u1_v1_0",
      "primitives": [
        {
          "attributes": {
            "NORMAL": 36,
            "POSITION": 35,
            "TEXCOORD_0": 37,
            "TEXCOORD_1": 38
          },
          "indices": 39,
          "material": 0,
          "mode": 4
        }
      ]
    },
    {
      "name": "model_tex_u1_v1_0",
      "primitives": [
        {
          "attributes": {
            "NORMAL": 41,
            "POSITION": 40,
            "TEXCOORD_0": 42,
            "TEXCOORD_1": 43
          },
          "indices": 44,
          "material": 0,
          "mode": 4
        }
      ]
    },
    {
      "name": "model_tex_u1_v1_0",
      "primitives": [
        {
          "attributes": {
            "NORMAL": 46,
            "POSITION": 45,
            "TEXCOORD_0": 47,
            "TEXCOORD_1": 48
          },
          "indices": 49,
          "material": 0,
          "mode": 4
        }
      ]
    },
    {
      "name": "model_tex_u1_v1_0",
      "primitives": [
        {
          "attributes": {
            "NORMAL": 51,
            "POSITION": 50,
            "TEXCOORD_0": 52,
            "TEXCOORD_1": 53
          },
          "indices": 54,
          "material": 0,
          "mode": 4
        }
      ]
    }
  ],
  "nodes": [
    {
      "children": [
        1
      ],
      "matrix": [
        1.0,
        0.0,
        0.0,
        0.0,
        0.0,
        2.220446049250313e-16,
        -1.0,
        0.0,
        0.0,
        1.0,
        2.220446049250313e-16,
        0.0,
        0.0,
        0.0,
        0.0,
        1.0
      ],
      "name": "Sketchfab_model"
    },
    {
      "children": [
        2
      ],
      "matrix": [
        1.0,
        0.0,
        0.0,
        0.0,
        0.0,
        0.0,
        1.0,
        0.0,
        0.0,
        -1.0,
        0.0,
        0.0,
        0.0,
        0.0,
        0.0,
        1.0
      ],
      "name": "model.fbx"
    },
    {
      "children": [
        3
      ],
      "name": "RootNode"
    },
    {
      "children": [
        4,
        5,
        6,
        7,
        8,
        9,
        10,
        11,
        12,
        13,
        14
      ],
      "matrix": [
        1.0,
        0.0,
        0.0,
        0.0,
        0.0,
        2.220446049250313e-16,
        -1.0,
        0.0,
        0.0,
        1.0,
        2.220446049250313e-16,
        0.0,
        0.0,
        0.0,
        0.0,
        1.0
      ],
      "name": "model"
    },
    {
      "mesh": 0,
      "name": "model_tex_u1_v1_0"
    },
    {
      "mesh": 1,
      "name": "model_tex_u1_v1_0"
    },
    {
      "mesh": 2,
      "name": "model_tex_u1_v1_0"
    },
    {
      "mesh": 3,
      "name": "model_tex_u1_v1_0"
    },
    {
      "mesh": 4,
      "name": "model_tex_u1_v1_0"
    },
    {
      "mesh": 5,
      "name": "model_tex_u1_v1_0"
    },
    {
      "mesh": 6,
      "name": "model_tex_u1_v1_0"
    },
    {
      "mesh": 7,
      "name": "model_tex_u1_v1_0"
    },
    {
      "mesh": 8,
      "name": "model_tex_u1_v1_0"
    },
    {
      "mesh": 9,
      "name": "model_tex_u1_v1_0"
    },
    {
      "mesh": 10,
      "name": "model_tex_u1_v1_0"
    }
  ],
  "samplers": [
    {
      "magFilter": 9729,
      "minFilter": 9987,
      "wrapS": 10497,
      "wrapT": 10497
    }
  ],
  "scene": 0,
  "scenes": [
    {
      "name": "Sketchfab_Scene",
      "nodes": [
        0
      ]
    }
  ],
  "textures": [
    {
      "sampler": 0,
      "source": 0
    }
  ]
}
